<svg width="16" height="16" viewBox="0 0 16 16" fill="none" xmlns="http://www.w3.org/2000/svg">
<rect width="16" height="16" fill="white"/>
<path d="M6.17769 7.396V11.068C6.17769 11.364 6.19369 11.612 6.22569 11.812C6.26569 12.004 6.32969 12.156 6.41769 12.268C6.51369 12.38 6.64169 12.46 6.80169 12.508C6.96169 12.556 7.16969 12.58 7.42569 12.58V13H4.01769V12.58C4.24969 12.58 4.43369 12.564 4.56969 12.532C4.70569 12.5 4.80969 12.432 4.88169 12.328C4.95369 12.224 4.99769 12.08 5.01369 11.896C5.03769 11.712 5.04969 11.468 5.04969 11.164V7.396H3.69369V6.832H5.04969V5.968C5.04969 5.048 5.28969 4.332 5.76969 3.82C6.25769 3.3 6.94969 3.04 7.84569 3.04C8.34169 3.04 8.74569 3.116 9.05769 3.268C9.36969 3.42 9.52569 3.616 9.52569 3.856C9.52569 4.016 9.47369 4.152 9.36969 4.264C9.27369 4.368 9.14969 4.42 8.99769 4.42C8.90169 4.42 8.79769 4.392 8.68569 4.336C8.57369 4.272 8.43369 4.168 8.26569 4.024C8.06569 3.856 7.90969 3.748 7.79769 3.7C7.68569 3.644 7.55369 3.616 7.40169 3.616C7.20969 3.616 7.03769 3.652 6.88569 3.724C6.73369 3.788 6.60569 3.908 6.50169 4.084C6.39769 4.252 6.31769 4.484 6.26169 4.78C6.20569 5.068 6.17769 5.44 6.17769 5.896V6.832H8.27769C8.44569 6.832 8.62169 6.792 8.80569 6.712C8.98969 6.624 9.16169 6.508 9.32169 6.364C9.48969 6.22 9.63769 6.06 9.76569 5.884C9.89369 5.7 9.99369 5.512 10.0657 5.32H10.4137V6.832H12.0217V7.396H10.4137V11.044C10.4137 11.324 10.4257 11.56 10.4497 11.752C10.4817 11.944 10.5297 12.1 10.5937 12.22C10.6577 12.332 10.7417 12.412 10.8457 12.46C10.9497 12.508 11.0817 12.532 11.2417 12.532C11.4417 12.532 11.6097 12.492 11.7457 12.412C11.8897 12.324 12.0297 12.18 12.1657 11.98L12.4657 12.208C12.3537 12.504 12.1577 12.732 11.8777 12.892C11.6057 13.044 11.2657 13.12 10.8577 13.12C10.3297 13.12 9.92569 12.996 9.64569 12.748C9.37369 12.492 9.23769 12.128 9.23769 11.656V7.396H6.17769Z" fill="black"/>
</svg>
